<?xml version="1.0" standalone="no"?>
<!DOCTYPE svg PUBLIC "-//W3C//DTD SVG 20010904//EN"
 "http://www.w3.org/TR/2001/REC-SVG-20010904/DTD/svg10.dtd">
<svg version="1.0" xmlns="http://www.w3.org/2000/svg"
 width="512.000000pt" height="512.000000pt" viewBox="0 0 512.000000 512.000000"
 preserveAspectRatio="xMidYMid meet">
<metadata>
Created by potrace 1.11, written by Peter Selinger 2001-2013
</metadata>
<g transform="translate(0.000000,512.000000) scale(0.100000,-0.100000)"
fill="#000000" stroke="none">
<path d="M2270 5109 c-486 -59 -950 -255 -1327 -560 -304 -246 -576 -607 -731
-969 -146 -340 -206 -640 -206 -1020 0 -383 60 -680 206 -1020 153 -359 430
-726 731 -969 388 -314 861 -510 1355 -562 147 -15 523 -7 652 15 382 64 725
198 1027 402 162 109 255 185 389 319 400 399 647 895 730 1470 25 166 25 524
0 690 -84 575 -330 1072 -730 1470 -390 389 -855 626 -1416 721 -112 19 -562
28 -680 13z m85 -719 c192 -28 352 -96 446 -189 116 -116 163 -284 140 -495
-33 -295 -200 -506 -466 -592 -67 -22 -98 -26 -190 -26 -64 1 -133 7 -165 16
-30 8 -56 14 -56 13 -7 -9 -91 -337 -118 -462 -52 -242 -68 -370 -64 -509 2
-100 7 -127 23 -156 32 -53 73 -72 174 -78 113 -6 253 28 396 97 153 74 146
61 91 172 -63 128 -88 228 -90 359 -1 126 16 190 75 278 121 183 397 287 640
242 84 -15 211 -82 258 -136 183 -208 106 -499 -181 -683 l-85 -55 104 -139
c57 -77 127 -173 154 -214 48 -71 120 -209 131 -251 5 -16 20 -22 79 -32 93
-16 290 -69 390 -107 l77 -28 -23 -90 c-22 -87 -77 -225 -90 -225 -4 0 -34 20
-68 44 -88 62 -207 118 -298 139 -26 7 -27 5 -33 -53 -31 -271 -251 -528 -511
-595 -81 -22 -238 -21 -312 0 -189 55 -307 184 -335 367 -37 244 108 433 423
552 l56 21 -99 160 c-54 88 -102 166 -107 173 -5 9 -29 0 -92 -36 -162 -93
-340 -163 -544 -214 -74 -18 -118 -22 -255 -23 -151 0 -170 2 -224 24 -105 42
-184 144 -221 287 -20 76 -19 244 1 359 36 207 146 625 249 952 103 325 135
449 135 533 0 79 -11 114 -46 151 l-25 26 69 31 c114 51 185 66 310 67 132 0
136 -2 146 -93 7 -63 -25 -313 -70 -546 -14 -70 -23 -130 -20 -133 2 -3 35 -5
73 -5 87 -1 143 23 200 85 87 94 123 216 123 409 0 245 -74 359 -262 403 -86
20 -306 20 -406 -1 -214 -44 -429 -176 -487 -299 -26 -56 -32 -143 -11 -183
18 -34 85 -78 134 -88 18 -4 32 -7 32 -8 0 -1 -22 -56 -48 -122 -47 -115 -50
-119 -77 -116 -86 10 -207 118 -245 218 -45 121 -35 262 28 387 95 190 368
353 687 411 94 17 378 20 480 6z"/>
<path d="M3050 2801 c-49 -16 -90 -42 -106 -67 -43 -65 5 -213 122 -372 6 -8
95 60 143 110 120 122 133 256 30 308 -44 23 -149 34 -189 21z"/>
<path d="M2960 1291 c-71 -22 -161 -80 -190 -121 -69 -96 -8 -230 105 -230
112 0 205 148 190 303 -8 77 -11 79 -105 48z"/>
</g>
</svg>
